# xmcd
#
# Track frame offsets: 
#        150
#        4275
#        23193
#        45835
#        71483
#        76517
#        100605
#        120853
#        126545
#        148263
#        174388
#        198372
#        221497
#        237971
#        262453
#        277408
#        306567
#        328295
#
# Disc length: 4661 seconds
#
# Revision: 0
# Processed by: cddbd v1.5.2PL0 Copyright (c) Steve Scherf et al.
# Submitted via: ExactAudioCopy v0.99pb4
#
DISCID=0d123312
DTITLE=Lucinda Williams - World Without Tears - Live at the Irving Pla
DTITLE=za Sept. 29, 2007
DYEAR=2007
DGENRE=Alternative
TTITLE0=Lucinda Chatter
TTITLE1=Fruits of My Labor
TTITLE2=Righteously
TTITLE3=Ventura
TTITLE4=Lucinda Chatter
TTITLE5=Real Live Bleeding Fingers and Broken Guitar Strings
TTITLE6=Over Time
TTITLE7=Lucinda Chatter
TTITLE8=Those Three Days
TTITLE9=Atonement
TTITLE10=Sweet Side
TTITLE11=Minneapolis
TTITLE12=Band Into.
TTITLE13=People Talkin
TTITLE14=Lucinda Chatter
TTITLE15=American Dream
TTITLE16=World Without Tears
TTITLE17=Words Fell
EXTD=
EXTT0=
EXTT1=
EXTT2=
EXTT3=
EXTT4=
EXTT5=
EXTT6=
EXTT7=
EXTT8=
EXTT9=
EXTT10=
EXTT11=
EXTT12=
EXTT13=
EXTT14=
EXTT15=
EXTT16=
EXTT17=
PLAYORDER=
